<?xml version="1.0" encoding="UTF-8" standalone="no"?>
<!-- Created with Inkscape (http://www.inkscape.org/) -->

<svg
   version="1.1"
   id="svg1"
   width="667"
   height="373"
   viewBox="0 0 667 373"
   xmlns="http://www.w3.org/2000/svg"
   xmlns:svg="http://www.w3.org/2000/svg">
  <defs
     id="defs1" />
  <g
     id="g1">
    <path
       style="fill:currentColor"

       d="m 304.03426,286.96935 c -51.22248,-9.74886 -83.1588,-58.90833 -70.26066,-108.15201 11.0195,-42.07122 52.25641,-70.27837 95.81459,-65.53976 39.15562,4.25968 68.59521,30.80312 77.20268,69.60779 2.16355,9.75385 1.65881,29.42576 -1.01348,39.4995 -4.31341,16.26026 -12.221,30.16216 -23.37291,41.09062 -11.00595,10.78542 -23.98497,18.14809 -38.71179,21.96023 -10.70102,2.77002 -29.36909,3.49194 -39.65843,1.53363 z m 34.15843,-15.07007 c 3.3,-0.83912 10.275,-3.62219 15.5,-6.18459 8.06513,-3.95524 10.85935,-6.03114 18.5,-13.74412 15.8165,-15.96623 22.17482,-32.30317 21.2445,-54.5852 -0.57659,-13.80991 -3.52912,-23.72245 -10.32227,-34.65501 -6.3338,-10.1933 -12.40091,-16.53924 -21.76079,-22.76084 -9.49594,-6.31204 -15.46628,-8.84325 -25.9814,-11.01521 -33.64179,-6.9489 -67.43586,10.35592 -81.71243,41.84223 -4.35399,9.6025 -5.93607,17.60981 -5.95283,30.12873 -0.0179,13.38119 1.5039,19.92814 7.42904,31.9601 8.99288,18.26154 23.93943,31.14239 44.02905,37.94398 11.05914,3.7442 26.81176,4.17606 39.02713,1.06993 z m -35.0982,-8.93749 c -6.18312,-1.40822 -16.4018,-5.99102 -16.4018,-7.35577 0,-0.41011 6.74431,-7.47872 14.98735,-15.70802 l 14.98735,-14.96237 5.12743,4.97487 c 8.7687,8.5078 25.90186,28.87088 25.02731,29.74543 -3.69401,3.69401 -32.471,5.86958 -43.72764,3.30586 z m 38.53386,-25.84755 c -21.52688,-22.69203 -19.70398,-19.90547 -15.24601,-23.30573 3.12519,-2.3837 4.76208,-2.87371 9.87776,-2.957 4.71197,-0.0767 7.18183,-0.71518 10.66644,-2.7573 10.48682,-6.14568 21.11721,-22.87587 21.21505,-33.38841 0.0448,-4.80738 -0.2978,-5.79042 -2.75466,-7.90526 -8.97082,-7.72198 -29.7472,3.73017 -38.23293,21.07438 -2.32463,4.75137 -2.65393,6.4496 -2.2068,11.38064 0.49683,5.4791 0.34154,6.01002 -2.84091,9.71286 l -3.36647,3.91695 -4.32687,-4.89518 c -4.20996,-4.76291 -4.31563,-5.05068 -3.91062,-10.64981 0.40588,-5.61129 0.30988,-5.87003 -3.85404,-10.38736 -4.06681,-4.41196 -22.08879,-20.43322 -24.68493,-21.94451 -1.59526,-0.92864 -5.27067,1.04391 -5.27067,2.82871 0,0.75982 -0.42834,1.53148 -0.95186,1.71482 -0.52353,0.18333 4.49546,6.40833 11.1533,13.83333 l 12.10517,13.5 -13.02674,-12.85929 c -8.21627,-8.11065 -13.28947,-12.4342 -13.7382,-11.70814 -0.42042,0.68027 2.49349,4.63469 7.12344,9.66711 14.40572,15.65795 15.80395,18.01322 3.51206,5.91595 -6.69744,-6.5914 -12.17717,-11.47184 -12.17717,-10.84541 0,1.73544 13.14588,21.19232 18.01394,26.66196 4.23218,4.75518 4.38449,4.82689 9.55815,4.5 5.1016,-0.32233 5.39394,-0.19376 9.8625,4.33765 l 4.60506,4.66982 -10.26982,9.87365 c -18.6841,17.96331 -23.42903,22.2867 -24.4597,22.2867 -1.54084,0 -10.43278,-9.83485 -14.01395,-15.5 -7.80888,-12.3531 -10.92493,-30.35574 -7.86667,-45.4489 4.96333,-24.495 20.64432,-41.41085 45.59571,-49.18631 6.08635,-1.89665 9.61088,-2.31714 18.97478,-2.26377 9.92669,0.0566 12.65959,0.45872 19.97598,2.93944 14.7042,4.98566 27.80093,15.4699 35.28482,28.24633 1.51843,2.59227 3.96381,8.31321 5.43417,12.71321 2.30962,6.91144 2.67164,9.63284 2.66053,20 -0.0113,10.57096 -0.35564,13.00938 -2.89136,20.47598 -3.44812,10.15329 -10.60954,21.24657 -17.74631,27.48963 -2.85091,2.49392 -5.44516,4.53439 -5.76499,4.53439 -0.31984,0 -7.52756,-7.32201 -16.01718,-16.27113 z m -51.70067,-55.99331 c -10.53116,-10.55651 -13.85843,-14.73556 -11.73213,-14.73556 0.27658,0 3.76408,3.47988 7.75,7.73307 3.98593,4.25318 9.67814,10.32818 12.64936,13.5 9.87747,10.54431 3.75461,5.95422 -8.66723,-6.49751 z m 40.81801,11.26444 c 0.0381,-1.85545 2.50085,-6.34663 6.447,-11.75719 2.14746,-2.94438 5.34106,-5.31923 11.2379,-8.35682 9.17313,-4.72527 12.34887,-4.82553 4.05762,-0.12809 -5.0382,2.8544 -13.1738,10.63995 -19.0623,18.2421 -1.49107,1.925 -2.69717,2.825 -2.68022,2 z m -228.86834,93.01058 c -1.82344,-0.43159 -4.468927,-1.84803 -5.878877,-3.14764 -5.46287,-5.03538 -5.30579,-2.39069 -5.30579,-89.33082 v -80.53212 h 26.500007 26.5 v 11 11 h -15.5 -15.5 v 27 27 h 13 13 v 11 11 h -13 -13 v 25.06574 c 0,15.36611 0.40058,25.81424 1.03518,27 0.95022,1.77549 2.22252,1.93426 15.5,1.93426 h 14.46482 v 11 11 l -19.25,-0.10236 c -10.5875,-0.0563 -20.74191,-0.45548 -22.56534,-0.88706 z m 75.81534,-29.01058 v -30 h -11.5 -11.5 v -9.5 -9.5 h 32.5 32.5 v 9.5 9.5 h -11 -11 v 30 30 h -10 -10 z m 243,-57 v -87 l 15.75,0.006 c 25.0299,0.009 32.55288,2.08826 40.8173,11.28029 7.93902,8.8301 8.4327,11.47709 8.4327,45.21392 0,27.13734 -0.15808,29.84749 -2.03335,34.85958 -2.5974,6.94218 -8.30347,13.41334 -15.11124,17.13739 -4.64749,2.54231 -6.64424,2.98284 -15.10541,3.33261 l -9.75,0.40282 v 30.8837 30.88369 h -11.5 -11.5 z m 35.30202,2.93306 c 2.55477,-0.70944 4.43982,-2.10182 5.74626,-4.24443 1.79002,-2.93569 1.94454,-5.19414 1.94798,-28.47075 0.004,-28.9082 -0.45043,-31.25622 -6.5461,-33.80315 -2.11577,-0.88403 -5.76922,-1.38885 -8.78599,-1.21401 l -5.16417,0.29928 -0.26397,32.99239 c -0.14519,18.14582 -0.0468,33.55832 0.21861,34.25 0.59268,1.54451 7.59767,1.64847 12.84738,0.19067 z m 41.69798,56.24508 c 0,-31.60884 0.4042,-33.94758 7.20175,-41.67 7.26252,-8.25066 18.50762,-12.03742 30.76724,-10.36081 10.57487,1.4462 19.48914,7.56697 24.06392,16.5229 2.43198,4.76103 2.47144,5.24606 2.77264,34.07977 l 0.30554,29.25 h -10.05554 -10.05555 v -7 -7 h -12.5 -12.5 v 7 7 h -10 -10 z m 44.8131,-14.17814 c 0.39344,-10.68103 -0.92659,-15.49021 -4.80184,-17.49418 -3.67637,-1.90112 -11.26636,-1.94238 -14.86623,-0.0808 -4.08937,2.11468 -5.14503,5.5315 -5.14503,16.65281 v 9.98373 l 12.25,-0.28078 12.25,-0.28078 z m -387.64194,-81.25 c 0.31886,-26.98574 0.43667,-28.47376 2.63254,-33.25 1.26431,-2.75 3.7382,-6.5008 5.49752,-8.33511 15.03605,-15.6769 44.20186,-12.15235 53.72524,6.49243 2.44118,4.77933 2.47737,5.22534 2.76621,34.09268 l 0.29266,29.25 h -10.04266 -10.04267 v -7 -7 h -12 -12 v 7 7 h -10.58132 -10.58132 z m 44.82884,-15.11514 c 0,-8.9412 -0.28213,-10.72381 -2.05365,-12.97593 -2.93011,-3.72504 -8.83149,-5.30953 -14.00366,-3.7599 -7.2468,2.17119 -7.94269,3.58186 -7.94269,16.10097 v 11 h 12 12 z m 298,33.86514 v -9.5 h 11 11 v -20.5 -20.5 h -11 -11 v -9.5 -9.5 h 32.5 32.5 v 9.5 9.5 h -11 -11 v 20.5 20.5 h 11 11 v 9.5 9.5 h -32.5 -32.5 z"
       id="path1" />
  </g>
</svg>
